<svg width="48" height="48" viewBox="0 0 48 48" fill="none" xmlns="http://www.w3.org/2000/svg">
<g clip-path="url(#clip0_1303_681)">
<path d="M24 4C12.9543 4 4 12.9543 4 24C4 35.0457 12.9543 44 24 44C35.0457 44 44 35.0457 44 24C44 18.6957 41.8929 13.6086 38.1421 9.85786C34.3914 6.10714 29.3043 4 24 4ZM24 10C27.3137 10 30 12.6863 30 16C30 19.3137 27.3137 22 24 22C20.6863 22 18 19.3137 18 16C18 12.6863 20.6863 10 24 10ZM35.24 32.32C32.5989 35.8768 28.4301 37.9736 24 37.9736C19.5699 37.9736 15.4011 35.8768 12.76 32.32C12.3584 31.7265 12.305 30.9636 12.62 30.32L13.04 29.44C14.0298 27.342 16.1402 26.0025 18.46 26H29.54C31.8272 26.003 33.9137 27.3061 34.92 29.36L35.38 30.3C35.7028 30.949 35.6493 31.7218 35.24 32.32Z" fill="white"/>
</g>
<defs>
<clipPath id="clip0_1303_681">
<rect width="48" height="48" fill="white"/>
</clipPath>
</defs>
</svg>
