<svg width="48" height="48" viewBox="0 0 48 48" fill="none" xmlns="http://www.w3.org/2000/svg">
<g clip-path="url(#clip0_1312_1108)">
<path d="M44 12C44 9.79086 42.2091 8 40 8H8C5.79086 8 4 9.79086 4 12V36C4 38.2091 5.79086 40 8 40H40C42.2091 40 44 38.2091 44 36V12ZM19 14C20.6569 14 22 15.3431 22 17C22 18.6569 20.6569 20 19 20C17.3431 20 16 18.6569 16 17C16 15.3431 17.3431 14 19 14ZM38 33C38 33.5523 37.5523 34 37 34H11C10.4477 34 10 33.5523 10 33V32.32C9.99928 32.1001 10.0773 31.8873 10.22 31.72L16 24.38C16.1737 24.1655 16.4255 24.0288 16.7 24C17.0009 23.9965 17.2874 24.1287 17.48 24.36L20.38 27.86C20.5664 28.0881 20.8454 28.2203 21.14 28.22C21.454 28.2169 21.7491 28.0694 21.94 27.82L27.7 20.38C27.8935 20.1354 28.1882 19.9928 28.5 19.9928C28.8118 19.9928 29.1065 20.1354 29.3 20.38L37.8 31.72C37.9286 31.8938 37.9986 32.1039 38 32.32V33Z" fill="#333333"/>
</g>
<defs>
<clipPath id="clip0_1312_1108">
<rect width="48" height="48" fill="white"/>
</clipPath>
</defs>
</svg>
